<?xml version="1.0" standalone="no"?>
<!DOCTYPE svg PUBLIC "-//W3C//DTD SVG 20010904//EN"
 "http://www.w3.org/TR/2001/REC-SVG-20010904/DTD/svg10.dtd">
<svg version="1.0" xmlns="http://www.w3.org/2000/svg"
 width="1117.000000pt" height="1117.000000pt" viewBox="0 0 1117.000000 1117.000000"
 preserveAspectRatio="xMidYMid meet">
<metadata>
Created by potrace 1.14, written by Peter Selinger 2001-2017
</metadata>
<g transform="translate(0.000000,1117.000000) scale(0.100000,-0.100000)"
fill="#000000" stroke="none">
<path d="M5907 11164 c-1 -1 -48 -5 -103 -8 -56 -4 -112 -8 -125 -11 -22 -3
-66 -9 -159 -21 -19 -3 -44 -7 -56 -9 -12 -3 -39 -7 -60 -10 -21 -3 -45 -8
-53 -11 -7 -2 -45 -11 -85 -20 -39 -8 -78 -17 -87 -19 -72 -16 -319 -96 -429
-138 -177 -69 -444 -201 -570 -282 -19 -12 -69 -44 -110 -70 -369 -236 -745
-600 -1018 -988 -139 -196 -304 -498 -387 -707 -21 -52 -43 -108 -50 -125 -13
-31 -70 -203 -103 -315 -19 -62 -20 -102 -20 -908 0 -785 1 -842 16 -829 10 8
28 24 42 35 200 166 430 359 450 376 14 11 66 55 115 96 50 41 99 82 110 92
11 9 232 193 490 408 259 215 490 408 514 428 24 20 94 78 154 128 108 90 110
94 164 200 46 93 98 183 125 219 5 6 35 45 67 89 205 272 515 497 836 609 100
34 245 71 320 81 22 3 60 8 85 12 58 8 290 8 355 0 244 -31 423 -85 634 -193
231 -117 453 -300 617 -508 193 -245 253 -395 252 -630 0 -33 -2 -816 -4
-1740 -7 -2978 -9 -3190 -27 -3275 -23 -109 -23 -107 -57 -205 -174 -491 -563
-877 -1055 -1048 -55 -19 -127 -40 -160 -48 -33 -7 -62 -13 -65 -14 -105 -26
-366 -34 -500 -16 -113 16 -112 16 -210 41 -528 135 -981 545 -1173 1060 -77
207 -104 420 -98 785 6 380 8 3815 2 3815 -3 0 -19 -11 -36 -25 -63 -51 -324
-261 -361 -290 -20 -16 -42 -34 -48 -40 -6 -5 -62 -50 -124 -100 -94 -74 -400
-320 -477 -383 -11 -10 -65 -53 -120 -97 -55 -44 -102 -82 -105 -85 -3 -3 -72
-59 -155 -124 -82 -66 -156 -125 -165 -133 -28 -23 -245 -197 -285 -228 -21
-16 -77 -62 -124 -100 -47 -39 -259 -210 -471 -380 -563 -453 -570 -458 -566
-462 2 -2 156 -6 342 -9 761 -11 889 -13 900 -14 8 0 10 -124 6 -432 -10
-1007 -7 -1425 13 -1528 2 -12 7 -46 10 -74 4 -29 15 -94 26 -146 25 -125 27
-135 40 -167 6 -16 10 -30 10 -33 -3 -33 101 -331 160 -458 16 -35 29 -66 29
-69 0 -13 127 -254 188 -356 267 -451 655 -860 1092 -1151 206 -137 359 -221
575 -314 126 -54 370 -142 435 -156 14 -3 79 -19 145 -35 66 -17 138 -33 160
-36 50 -7 95 -15 115 -20 8 -2 47 -7 85 -11 39 -3 72 -8 75 -9 7 -4 284 -18
360 -18 64 0 289 12 322 18 13 2 49 6 80 10 54 6 139 19 184 29 12 2 39 7 60
10 69 11 236 54 352 90 781 246 1459 765 1916 1465 145 223 272 477 361 721
14 41 29 82 32 90 4 8 7 17 8 20 1 3 13 43 28 90 67 214 119 482 142 735 12
129 6 541 -11 775 -2 25 -6 707 -9 1515 -2 809 -7 1571 -10 1695 -13 599 -23
957 -30 1003 -32 235 -56 330 -133 532 -105 278 -299 620 -512 900 -46 61 -86
112 -89 115 -3 3 -37 41 -76 85 -329 373 -710 665 -1160 886 -89 43 -165 79
-169 79 -4 0 -26 9 -49 19 -69 31 -286 107 -372 131 -44 11 -91 25 -105 30
-14 5 -42 12 -64 15 -21 3 -42 7 -46 10 -3 2 -20 7 -36 9 -16 3 -40 8 -54 11
-56 11 -198 35 -245 40 -27 3 -63 8 -80 10 -80 13 -537 28 -548 19z"/>
</g>
</svg>
